# xmcd
#
# Track frame offsets: 
#        150
#        19310
#        48538
#        71145
#        96353
#        120208
#        138988
#        167480
#        187373
#
# Disc length: 2950 seconds
#
# Revision: 5
# Processed by: cddbd v1.5.2PL0 Copyright (c) Steve Scherf et al.
# Submitted via: ExactAudioCopy v0.95a5
#
DISCID=800b8409
DTITLE=Howlin' Wolf - In Concert
DYEAR=1993
DGENRE=Blues
TTITLE0=Shake It For Me
TTITLE1=Love Me
TTITLE2=Dust My Broom
TTITLE3=I Didn't Mean To Hurt Your Feelings
TTITLE4=Rockin' The Blues
TTITLE5=All My Life
TTITLE6=Goin' Down Slow
TTITLE7=Howlin' For My Darlin'
TTITLE8=Forty Four
EXTD=Howlin' Wolf a.k.a. Chester Arthur Burnett\nThis album a.k.a. The
EXTD=Collection
EXTT0=
EXTT1=
EXTT2=
EXTT3=
EXTT4=
EXTT5=
EXTT6=
EXTT7=
EXTT8=
PLAYORDER=
